<svg xmlns="http://www.w3.org/2000/svg" width="96" height="96" viewBox="0 0 96 96" role="img" aria-label="Neha S.">
  <defs>
    <linearGradient id="bg" x1="0" x2="1" y1="0" y2="1">
      <stop stop-color="#EAF2FF"/>
      <stop offset="1" stop-color="#FFF7E6"/>
    </linearGradient>
  </defs>
  <rect width="96" height="96" rx="48" fill="url(#bg)"/>
  <circle cx="48" cy="38" r="19" fill="#2B1A18"/>
  <circle cx="48" cy="43" r="17" fill="#C7825B"/>
  <path d="M24 82c3-18 17-28 24-28s21 10 24 28" fill="#19469C"/>
  <path d="M31 40c2-20 13-27 28-20 10 5 12 17 7 27-10-4-24-7-35-7Z" fill="#171717"/>
  <circle cx="41" cy="43" r="2" fill="#111827"/>
  <circle cx="55" cy="43" r="2" fill="#111827"/>
  <path d="M40 53c5 4 11 4 16 0" fill="none" stroke="#7A3A28" stroke-width="2" stroke-linecap="round"/>
</svg>
