<svg xmlns="http://www.w3.org/2000/svg" width="96" height="96" viewBox="0 0 96 96" role="img" aria-label="Ananya K.">
  <defs>
    <linearGradient id="bg" x1="0" x2="1" y1="0" y2="1">
      <stop stop-color="#FFF7E6"/>
      <stop offset="1" stop-color="#EAF2FF"/>
    </linearGradient>
  </defs>
  <rect width="96" height="96" rx="48" fill="url(#bg)"/>
  <path d="M23 82c4-18 17-28 25-28s21 10 25 28" fill="#038CD2"/>
  <circle cx="48" cy="42" r="17" fill="#D09068"/>
  <path d="M28 45c-2-18 7-31 22-31 17 0 25 15 18 33-9-8-27-10-40-2Z" fill="#261915"/>
  <path d="M32 35c6-12 20-15 31-4-13-3-22-2-31 4Z" fill="#171717"/>
  <circle cx="42" cy="44" r="2" fill="#111827"/>
  <circle cx="56" cy="44" r="2" fill="#111827"/>
  <path d="M40 53c5 4 12 4 17 0" fill="none" stroke="#7A3A28" stroke-width="2" stroke-linecap="round"/>
</svg>
