<svg xmlns="http://www.w3.org/2000/svg" width="96" height="96" viewBox="0 0 96 96" role="img" aria-label="Rohan M.">
  <defs>
    <linearGradient id="bg" x1="0" x2="1" y1="0" y2="1">
      <stop stop-color="#E5F8FF"/>
      <stop offset="1" stop-color="#EAF2FF"/>
    </linearGradient>
  </defs>
  <rect width="96" height="96" rx="48" fill="url(#bg)"/>
  <path d="M26 82c4-18 17-28 22-28s19 10 22 28" fill="#0B2E75"/>
  <circle cx="48" cy="43" r="17" fill="#B66E48"/>
  <path d="M31 37c2-18 13-24 26-19 8 3 13 11 12 23-11-8-24-7-38-4Z" fill="#1F1612"/>
  <path d="M34 29c5-11 24-10 31 1-10-4-21-4-31-1Z" fill="#171717"/>
  <circle cx="42" cy="44" r="2" fill="#111827"/>
  <circle cx="56" cy="44" r="2" fill="#111827"/>
  <path d="M41 54c5 3 10 3 15 0" fill="none" stroke="#6B3325" stroke-width="2" stroke-linecap="round"/>
</svg>
